<mxfile host="app.diagrams.net" agent="Mozilla/5.0 (Windows NT 10.0; Win64; x64) AppleWebKit/537.36 (KHTML, like Gecko) Chrome/130.0.0.0 Safari/537.36" version="24.8.3">
  <diagram name="1 oldal" id="sRMjYHD9PkyGXFfMcs-P">
    <mxGraphModel dx="819" dy="441" grid="1" gridSize="10" guides="1" tooltips="1" connect="1" arrows="1" fold="1" page="1" pageScale="1" pageWidth="827" pageHeight="1169" math="0" shadow="0">
      <root>
        <mxCell id="0" />
        <mxCell id="1" parent="0" />
        <mxCell id="lFb5T4_YpBJoaHI44jCY-2" value="&lt;font style=&quot;font-size: 16px;&quot;&gt;Léptető motor + Enkóder&lt;/font&gt;" style="rounded=1;whiteSpace=wrap;html=1;" vertex="1" parent="1">
          <mxGeometry x="560" y="200" width="120" height="80" as="geometry" />
        </mxCell>
        <mxCell id="lFb5T4_YpBJoaHI44jCY-3" value="&lt;font style=&quot;font-size: 16px;&quot;&gt;Motorvezérlő&lt;/font&gt;" style="rounded=0;whiteSpace=wrap;html=1;" vertex="1" parent="1">
          <mxGeometry x="360" y="200" width="120" height="80" as="geometry" />
        </mxCell>
        <mxCell id="lFb5T4_YpBJoaHI44jCY-4" value="&lt;span style=&quot;color: rgb(32, 33, 34); font-family: sans-serif; text-align: left; background-color: rgb(255, 255, 255);&quot;&gt;&lt;font style=&quot;font-size: 20px;&quot;&gt;μC&lt;/font&gt;&lt;/span&gt;" style="rounded=0;whiteSpace=wrap;html=1;" vertex="1" parent="1">
          <mxGeometry x="200" y="200" width="80" height="360" as="geometry" />
        </mxCell>
        <mxCell id="lFb5T4_YpBJoaHI44jCY-8" value="" style="endArrow=classic;html=1;rounded=0;exitX=0.995;exitY=0.111;exitDx=0;exitDy=0;exitPerimeter=0;entryX=0;entryY=0.5;entryDx=0;entryDy=0;fontSize=12;" edge="1" parent="1" source="lFb5T4_YpBJoaHI44jCY-4" target="lFb5T4_YpBJoaHI44jCY-3">
          <mxGeometry width="50" height="50" relative="1" as="geometry">
            <mxPoint x="420" y="300" as="sourcePoint" />
            <mxPoint x="470" y="250" as="targetPoint" />
          </mxGeometry>
        </mxCell>
        <mxCell id="lFb5T4_YpBJoaHI44jCY-18" value="Sebesség" style="edgeLabel;html=1;align=center;verticalAlign=middle;resizable=0;points=[];" vertex="1" connectable="0" parent="lFb5T4_YpBJoaHI44jCY-8">
          <mxGeometry x="-0.0023" relative="1" as="geometry">
            <mxPoint as="offset" />
          </mxGeometry>
        </mxCell>
        <mxCell id="lFb5T4_YpBJoaHI44jCY-9" value="" style="endArrow=classic;html=1;rounded=0;exitX=1;exitY=0.5;exitDx=0;exitDy=0;entryX=0;entryY=0.5;entryDx=0;entryDy=0;" edge="1" parent="1" source="lFb5T4_YpBJoaHI44jCY-3" target="lFb5T4_YpBJoaHI44jCY-2">
          <mxGeometry width="50" height="50" relative="1" as="geometry">
            <mxPoint x="460" y="300" as="sourcePoint" />
            <mxPoint x="510" y="250" as="targetPoint" />
          </mxGeometry>
        </mxCell>
        <mxCell id="lFb5T4_YpBJoaHI44jCY-19" value="Sebesség" style="edgeLabel;html=1;align=center;verticalAlign=middle;resizable=0;points=[];" vertex="1" connectable="0" parent="lFb5T4_YpBJoaHI44jCY-9">
          <mxGeometry y="1" relative="1" as="geometry">
            <mxPoint as="offset" />
          </mxGeometry>
        </mxCell>
        <mxCell id="lFb5T4_YpBJoaHI44jCY-11" value="" style="endArrow=classic;html=1;rounded=0;entryX=1.012;entryY=0.277;entryDx=0;entryDy=0;entryPerimeter=0;" edge="1" parent="1" target="lFb5T4_YpBJoaHI44jCY-4">
          <mxGeometry width="50" height="50" relative="1" as="geometry">
            <mxPoint x="600" y="300" as="sourcePoint" />
            <mxPoint x="480" y="270" as="targetPoint" />
          </mxGeometry>
        </mxCell>
        <mxCell id="lFb5T4_YpBJoaHI44jCY-20" value="Pozíció" style="edgeLabel;html=1;align=center;verticalAlign=middle;resizable=0;points=[];" vertex="1" connectable="0" parent="lFb5T4_YpBJoaHI44jCY-11">
          <mxGeometry x="-0.0065" relative="1" as="geometry">
            <mxPoint as="offset" />
          </mxGeometry>
        </mxCell>
        <mxCell id="lFb5T4_YpBJoaHI44jCY-12" value="" style="endArrow=none;html=1;rounded=0;" edge="1" parent="1">
          <mxGeometry width="50" height="50" relative="1" as="geometry">
            <mxPoint x="600" y="300" as="sourcePoint" />
            <mxPoint x="600" y="280" as="targetPoint" />
          </mxGeometry>
        </mxCell>
        <mxCell id="lFb5T4_YpBJoaHI44jCY-21" value="&lt;font style=&quot;font-size: 16px;&quot;&gt;Léptető motor + Enkóder&lt;/font&gt;" style="rounded=1;whiteSpace=wrap;html=1;" vertex="1" parent="1">
          <mxGeometry x="560" y="320" width="120" height="80" as="geometry" />
        </mxCell>
        <mxCell id="lFb5T4_YpBJoaHI44jCY-22" value="&lt;font style=&quot;font-size: 16px;&quot;&gt;Motorvezérlő&lt;/font&gt;" style="rounded=0;whiteSpace=wrap;html=1;" vertex="1" parent="1">
          <mxGeometry x="360" y="320" width="120" height="80" as="geometry" />
        </mxCell>
        <mxCell id="lFb5T4_YpBJoaHI44jCY-23" value="" style="endArrow=classic;html=1;rounded=0;entryX=0;entryY=0.5;entryDx=0;entryDy=0;fontSize=12;exitX=1;exitY=0.444;exitDx=0;exitDy=0;exitPerimeter=0;" edge="1" parent="1" target="lFb5T4_YpBJoaHI44jCY-22" source="lFb5T4_YpBJoaHI44jCY-4">
          <mxGeometry width="50" height="50" relative="1" as="geometry">
            <mxPoint x="300" y="370" as="sourcePoint" />
            <mxPoint x="470" y="370" as="targetPoint" />
          </mxGeometry>
        </mxCell>
        <mxCell id="lFb5T4_YpBJoaHI44jCY-24" value="Sebesség" style="edgeLabel;html=1;align=center;verticalAlign=middle;resizable=0;points=[];" vertex="1" connectable="0" parent="lFb5T4_YpBJoaHI44jCY-23">
          <mxGeometry x="-0.0023" relative="1" as="geometry">
            <mxPoint as="offset" />
          </mxGeometry>
        </mxCell>
        <mxCell id="lFb5T4_YpBJoaHI44jCY-25" value="" style="endArrow=classic;html=1;rounded=0;exitX=1;exitY=0.5;exitDx=0;exitDy=0;entryX=0;entryY=0.5;entryDx=0;entryDy=0;" edge="1" parent="1" source="lFb5T4_YpBJoaHI44jCY-22" target="lFb5T4_YpBJoaHI44jCY-21">
          <mxGeometry width="50" height="50" relative="1" as="geometry">
            <mxPoint x="460" y="420" as="sourcePoint" />
            <mxPoint x="510" y="370" as="targetPoint" />
          </mxGeometry>
        </mxCell>
        <mxCell id="lFb5T4_YpBJoaHI44jCY-26" value="Sebesség" style="edgeLabel;html=1;align=center;verticalAlign=middle;resizable=0;points=[];" vertex="1" connectable="0" parent="lFb5T4_YpBJoaHI44jCY-25">
          <mxGeometry y="1" relative="1" as="geometry">
            <mxPoint as="offset" />
          </mxGeometry>
        </mxCell>
        <mxCell id="lFb5T4_YpBJoaHI44jCY-27" value="" style="endArrow=classic;html=1;rounded=0;entryX=0.994;entryY=0.361;entryDx=0;entryDy=0;entryPerimeter=0;" edge="1" parent="1">
          <mxGeometry width="50" height="50" relative="1" as="geometry">
            <mxPoint x="600" y="420" as="sourcePoint" />
            <mxPoint x="280" y="421" as="targetPoint" />
          </mxGeometry>
        </mxCell>
        <mxCell id="lFb5T4_YpBJoaHI44jCY-28" value="Pozíció" style="edgeLabel;html=1;align=center;verticalAlign=middle;resizable=0;points=[];" vertex="1" connectable="0" parent="lFb5T4_YpBJoaHI44jCY-27">
          <mxGeometry x="-0.0065" relative="1" as="geometry">
            <mxPoint as="offset" />
          </mxGeometry>
        </mxCell>
        <mxCell id="lFb5T4_YpBJoaHI44jCY-29" value="" style="endArrow=none;html=1;rounded=0;" edge="1" parent="1">
          <mxGeometry width="50" height="50" relative="1" as="geometry">
            <mxPoint x="600" y="420" as="sourcePoint" />
            <mxPoint x="600" y="400" as="targetPoint" />
          </mxGeometry>
        </mxCell>
        <mxCell id="lFb5T4_YpBJoaHI44jCY-30" value="&lt;font style=&quot;font-size: 16px;&quot;&gt;Léptető motor + Enkóder&lt;/font&gt;" style="rounded=1;whiteSpace=wrap;html=1;" vertex="1" parent="1">
          <mxGeometry x="560" y="440" width="120" height="80" as="geometry" />
        </mxCell>
        <mxCell id="lFb5T4_YpBJoaHI44jCY-31" value="&lt;font style=&quot;font-size: 16px;&quot;&gt;Motorvezérlő&lt;/font&gt;" style="rounded=0;whiteSpace=wrap;html=1;" vertex="1" parent="1">
          <mxGeometry x="360" y="440" width="120" height="80" as="geometry" />
        </mxCell>
        <mxCell id="lFb5T4_YpBJoaHI44jCY-32" value="" style="endArrow=classic;html=1;rounded=0;entryX=0;entryY=0.5;entryDx=0;entryDy=0;fontSize=12;exitX=0.995;exitY=0.777;exitDx=0;exitDy=0;exitPerimeter=0;" edge="1" parent="1" target="lFb5T4_YpBJoaHI44jCY-31" source="lFb5T4_YpBJoaHI44jCY-4">
          <mxGeometry width="50" height="50" relative="1" as="geometry">
            <mxPoint x="290" y="480" as="sourcePoint" />
            <mxPoint x="470" y="490" as="targetPoint" />
          </mxGeometry>
        </mxCell>
        <mxCell id="lFb5T4_YpBJoaHI44jCY-33" value="Sebesség" style="edgeLabel;html=1;align=center;verticalAlign=middle;resizable=0;points=[];" vertex="1" connectable="0" parent="lFb5T4_YpBJoaHI44jCY-32">
          <mxGeometry x="-0.0023" relative="1" as="geometry">
            <mxPoint as="offset" />
          </mxGeometry>
        </mxCell>
        <mxCell id="lFb5T4_YpBJoaHI44jCY-34" value="" style="endArrow=classic;html=1;rounded=0;exitX=1;exitY=0.5;exitDx=0;exitDy=0;entryX=0;entryY=0.5;entryDx=0;entryDy=0;" edge="1" parent="1" source="lFb5T4_YpBJoaHI44jCY-31" target="lFb5T4_YpBJoaHI44jCY-30">
          <mxGeometry width="50" height="50" relative="1" as="geometry">
            <mxPoint x="460" y="540" as="sourcePoint" />
            <mxPoint x="510" y="490" as="targetPoint" />
          </mxGeometry>
        </mxCell>
        <mxCell id="lFb5T4_YpBJoaHI44jCY-35" value="Sebesség" style="edgeLabel;html=1;align=center;verticalAlign=middle;resizable=0;points=[];" vertex="1" connectable="0" parent="lFb5T4_YpBJoaHI44jCY-34">
          <mxGeometry y="1" relative="1" as="geometry">
            <mxPoint as="offset" />
          </mxGeometry>
        </mxCell>
        <mxCell id="lFb5T4_YpBJoaHI44jCY-36" value="" style="endArrow=classic;html=1;rounded=0;entryX=0.994;entryY=0.361;entryDx=0;entryDy=0;entryPerimeter=0;" edge="1" parent="1">
          <mxGeometry width="50" height="50" relative="1" as="geometry">
            <mxPoint x="600" y="540" as="sourcePoint" />
            <mxPoint x="280" y="541" as="targetPoint" />
          </mxGeometry>
        </mxCell>
        <mxCell id="lFb5T4_YpBJoaHI44jCY-37" value="Pozíció" style="edgeLabel;html=1;align=center;verticalAlign=middle;resizable=0;points=[];" vertex="1" connectable="0" parent="lFb5T4_YpBJoaHI44jCY-36">
          <mxGeometry x="-0.0065" relative="1" as="geometry">
            <mxPoint as="offset" />
          </mxGeometry>
        </mxCell>
        <mxCell id="lFb5T4_YpBJoaHI44jCY-38" value="" style="endArrow=none;html=1;rounded=0;" edge="1" parent="1">
          <mxGeometry width="50" height="50" relative="1" as="geometry">
            <mxPoint x="600" y="540" as="sourcePoint" />
            <mxPoint x="600" y="520" as="targetPoint" />
          </mxGeometry>
        </mxCell>
        <mxCell id="lFb5T4_YpBJoaHI44jCY-40" value="" style="endArrow=classic;startArrow=classic;html=1;rounded=0;entryX=-0.035;entryY=0.222;entryDx=0;entryDy=0;entryPerimeter=0;" edge="1" parent="1" target="lFb5T4_YpBJoaHI44jCY-4">
          <mxGeometry width="50" height="50" relative="1" as="geometry">
            <mxPoint x="80" y="280" as="sourcePoint" />
            <mxPoint x="220" y="280" as="targetPoint" />
          </mxGeometry>
        </mxCell>
        <mxCell id="lFb5T4_YpBJoaHI44jCY-42" value="PC" style="edgeLabel;html=1;align=center;verticalAlign=middle;resizable=0;points=[];" vertex="1" connectable="0" parent="lFb5T4_YpBJoaHI44jCY-40">
          <mxGeometry x="0.0052" relative="1" as="geometry">
            <mxPoint as="offset" />
          </mxGeometry>
        </mxCell>
        <mxCell id="lFb5T4_YpBJoaHI44jCY-44" value="&lt;font style=&quot;font-size: 16px;&quot;&gt;Kijelző&lt;/font&gt;" style="rounded=0;whiteSpace=wrap;html=1;" vertex="1" parent="1">
          <mxGeometry x="80" y="320" width="80" height="60" as="geometry" />
        </mxCell>
        <mxCell id="lFb5T4_YpBJoaHI44jCY-45" value="&lt;span style=&quot;font-size: 16px;&quot;&gt;Gombok&lt;/span&gt;" style="rounded=0;whiteSpace=wrap;html=1;" vertex="1" parent="1">
          <mxGeometry x="80" y="400" width="80" height="60" as="geometry" />
        </mxCell>
        <mxCell id="lFb5T4_YpBJoaHI44jCY-46" value="&lt;span style=&quot;font-size: 16px;&quot;&gt;Relé&lt;/span&gt;" style="rounded=0;whiteSpace=wrap;html=1;" vertex="1" parent="1">
          <mxGeometry x="80" y="480" width="80" height="60" as="geometry" />
        </mxCell>
        <mxCell id="lFb5T4_YpBJoaHI44jCY-47" value="" style="endArrow=classic;html=1;rounded=0;entryX=1;entryY=0.5;entryDx=0;entryDy=0;exitX=0.004;exitY=0.861;exitDx=0;exitDy=0;exitPerimeter=0;" edge="1" parent="1" source="lFb5T4_YpBJoaHI44jCY-4" target="lFb5T4_YpBJoaHI44jCY-46">
          <mxGeometry width="50" height="50" relative="1" as="geometry">
            <mxPoint x="150" y="530" as="sourcePoint" />
            <mxPoint x="200" y="480" as="targetPoint" />
          </mxGeometry>
        </mxCell>
        <mxCell id="lFb5T4_YpBJoaHI44jCY-48" value="" style="endArrow=classic;html=1;rounded=0;exitX=1;exitY=0.5;exitDx=0;exitDy=0;entryX=0;entryY=0.639;entryDx=0;entryDy=0;entryPerimeter=0;" edge="1" parent="1" source="lFb5T4_YpBJoaHI44jCY-45" target="lFb5T4_YpBJoaHI44jCY-4">
          <mxGeometry width="50" height="50" relative="1" as="geometry">
            <mxPoint x="160" y="490" as="sourcePoint" />
            <mxPoint x="210" y="440" as="targetPoint" />
          </mxGeometry>
        </mxCell>
        <mxCell id="lFb5T4_YpBJoaHI44jCY-49" value="" style="endArrow=classic;html=1;rounded=0;" edge="1" parent="1">
          <mxGeometry width="50" height="50" relative="1" as="geometry">
            <mxPoint x="200" y="350" as="sourcePoint" />
            <mxPoint x="160" y="350" as="targetPoint" />
          </mxGeometry>
        </mxCell>
      </root>
    </mxGraphModel>
  </diagram>
</mxfile>
